<svg xmlns="http://www.w3.org/2000/svg" xmlns:xlink="http://www.w3.org/1999/xlink" width="500" height="157" viewBox="0 0 500 157"><defs><clipPath id="clip-path"><rect id="Rectangle_1" data-name="Rectangle 1" width="500" height="157" fill="#650f0f"></rect></clipPath></defs><g id="Artboard_20" data-name="Artboard &#x2013; 20" clip-path="url(#clip-path)"><g id="Layer_3" data-name="Layer 3" transform="translate(4 2)"><path id="Path_794" data-name="Path 794" d="M257.987,7.992a18.5,18.5,0,0,0-4.722-5.5A12.577,12.577,0,0,0,245.472,0a12.868,12.868,0,0,0-7.793,2.449,17.836,17.836,0,0,0-4.791,5.474L186.22,85.733l19.794,18.973,38.828-65.863,16.592,27.879h-24.8L225.386,86.186l47.6.1L286.3,108.621h32.248Z" transform="translate(-43.337 0.004)" fill="#0e99e1"></path><path id="Path_795" data-name="Path 795" d="M408.653.575V64.657l-60-59.536a17.883,17.883,0,0,0-5.06-3.685,13.613,13.613,0,0,0-5.74-1.268,12.968,12.968,0,0,0-10.166,4.476,15.99,15.99,0,0,0-3.547,10.7V55.789L350.391,99.73V44.7l59.736,60.081c3.378,3.371,7.179,5.083,11.318,5.083a12.761,12.761,0,0,0,9.874-4.392c2.38-2.718,3.586-6.357,3.586-10.8V.575Z" transform="translate(-75.361 -0.035)" fill="#0e99e1"></path><path id="Path_796" data-name="Path 796" d="M597.745,33.189A48.073,48.073,0,0,0,570.1,5.548a57.248,57.248,0,0,0-21.18-3.839H525.272a55.9,55.9,0,0,0-20.639,3.762A49.755,49.755,0,0,0,487.987,16.22a48.558,48.558,0,0,0-11.049,16.77A57.1,57.1,0,0,0,473,54.373a59.02,59.02,0,0,0,3.885,21.5,52.4,52.4,0,0,0,10.957,17.376A51.849,51.849,0,0,0,504.48,104.82a51.128,51.128,0,0,0,20.823,4.238h23.633A51.244,51.244,0,0,0,597.692,75.9a58.92,58.92,0,0,0,3.885-21.5,57.086,57.086,0,0,0-3.832-21.207Zm-48.81,48.779H525.272a25.238,25.238,0,0,1-10.1-2,23.8,23.8,0,0,1-7.916-5.474,25.243,25.243,0,0,1-5.236-8.446,30.136,30.136,0,0,1-1.935-10.888A29.431,29.431,0,0,1,502,44.3a24.916,24.916,0,0,1,5.221-8.239,23.7,23.7,0,0,1,7.9-5.375A25.96,25.96,0,0,1,525.268,28.8h23.664A26.781,26.781,0,0,1,559.3,30.763a23.441,23.441,0,0,1,13.291,13.629,29.474,29.474,0,0,1,1.935,10.8,30.138,30.138,0,0,1-1.935,10.888,24.823,24.823,0,0,1-5.275,8.4,24.523,24.523,0,0,1-8.062,5.5,26.014,26.014,0,0,1-10.319,1.989Z" transform="translate(-109.924 -0.393)" fill="#0e99e1"></path><path id="Path_797" data-name="Path 797" d="M132.154,52.262,185.548,1.74H138.619L108.69,30.064l23.288,22.028Z" transform="translate(-25.335 -0.401)" fill="#0461bd"></path><path id="Path_798" data-name="Path 798" d="M131.978,75.839,108.69,97.875l29.929,28.317h46.929L132.154,75.67Z" transform="translate(-25.335 -17.567)" fill="#0461bd"></path><path id="Path_799" data-name="Path 799" d="M46.929,1.74H0L56.687,55.387,0,109.026H46.929l56.7-53.639Z" transform="translate(-0.098 -0.401)" fill="#0e99e1"></path><g id="Group_1666" data-name="Group 1666" transform="translate(-0.387 135.161)"><path id="Path_800" data-name="Path 800" d="M2.613-5.779H4.686v-7.593h8.667V-15.22H4.686v-5.37h8.842v-1.848H2.613Zm23.553,0h2.3L21.745-22.438H19.172L12.479-5.779h2.3l1.474-3.7h8.442ZM20.471-20.59l3.6,9.266H16.85ZM28.039-8.127a8.249,8.249,0,0,0,6.394,2.648c4.5,0,6.144-2.473,6.144-4.9,0-3.5-3.1-4.346-5.82-5.07-2.123-.574-4.046-1.074-4.046-2.747,0-1.574,1.424-2.648,3.422-2.648a6.375,6.375,0,0,1,4.82,2L40.2-20.365a7.833,7.833,0,0,0-5.919-2.323c-3.272,0-5.72,1.873-5.72,4.621,0,3.272,2.972,4.021,5.645,4.721,2.2.6,4.221,1.149,4.221,3.147,0,1.274-.949,2.872-3.921,2.872A7.042,7.042,0,0,1,29.263-9.7ZM46.4-5.779h2.07V-20.59h5.3v-1.848H41.127v1.848H46.4Zm8.867,0H66.178V-7.627H57.337v-5.745H66V-15.22H57.337v-5.37h8.842v-1.848H55.263Zm11.96-2.348a8.249,8.249,0,0,0,6.394,2.648c4.5,0,6.144-2.473,6.144-4.9,0-3.5-3.1-4.346-5.82-5.07C71.822-16.023,69.9-16.523,69.9-18.2c0-1.574,1.424-2.648,3.422-2.648a6.375,6.375,0,0,1,4.82,2l1.249-1.524a7.833,7.833,0,0,0-5.919-2.323c-3.272,0-5.72,1.873-5.72,4.621,0,3.272,2.972,4.021,5.645,4.721,2.2.6,4.221,1.149,4.221,3.147,0,1.274-.949,2.872-3.921,2.872A7.042,7.042,0,0,1,68.451-9.7ZM85.585-5.779h2.073V-20.59h5.3v-1.848H80.315v1.848h5.27Zm133.549,0h7.593c3.047,0,4.82-1.823,4.82-4.5a4.159,4.159,0,0,0-3.247-4.1,3.786,3.786,0,0,0,2.922-3.821c0-2.5-1.773-4.246-4.671-4.246h-7.418Zm2.073-9.441v-5.37h5a2.619,2.619,0,0,1,2.049.7,2.619,2.619,0,0,1,.823,2,2.588,2.588,0,0,1-.826,2,2.588,2.588,0,0,1-2.053.674Zm0,7.593v-5.745h5.1a2.829,2.829,0,0,1,2.194.741,2.829,2.829,0,0,1,.906,2.131c0,1.773-1.149,2.872-3.1,2.872Zm24.352,1.848h2.3L241.14-22.438h-2.573l-6.7,16.659h2.3l1.474-3.7h8.442ZM239.865-20.59l3.6,9.266h-7.218Zm15.81,15.111a7.575,7.575,0,0,0,6.419-3.3l-1.773-.974a5.591,5.591,0,0,1-4.646,2.423c-3.572,0-6.344-2.822-6.344-6.769,0-3.971,2.772-6.769,6.344-6.769a5.654,5.654,0,0,1,4.646,2.423l1.748-.974a7.49,7.49,0,0,0-6.394-3.3,8.316,8.316,0,0,0-6.1,2.477,8.316,8.316,0,0,0-2.387,6.14,8.316,8.316,0,0,0,2.385,6.144A8.316,8.316,0,0,0,255.675-5.479Zm17.883-.3h2.573l-7.543-8.742,6.943-7.918h-2.6l-7.368,8.617v-8.617H263.49v16.66h2.073v-5.595l1.673-1.9Zm3.7,0h10.915V-7.627h-8.842v-5.745H288V-15.22h-8.667v-5.37h8.842v-1.848H277.255Zm24.752,0h2V-22.438h-2.073V-9.276l-9.6-13.162h-2.123V-5.779h2.073V-19.216Zm4.646,0h5.7c5.17,0,8.542-3.572,8.542-8.317a8.106,8.106,0,0,0-2.439-6.047,8.106,8.106,0,0,0-6.1-2.295h-5.7Zm2.073-1.848V-20.59h3.622c4.121,0,6.394,2.9,6.394,6.494a6.126,6.126,0,0,1-1.759,4.656,6.126,6.126,0,0,1-4.635,1.813Zm19.357,1.848h5.7c5.17,0,8.542-3.572,8.542-8.317a8.106,8.106,0,0,0-2.439-6.047,8.106,8.106,0,0,0-6.1-2.295h-5.7Zm2.073-1.848V-20.59h3.622c4.121,0,6.394,2.9,6.394,6.494a6.126,6.126,0,0,1-1.759,4.656,6.126,6.126,0,0,1-4.635,1.813Zm14.162,1.848h10.915V-7.627H346.39v-5.745h8.667V-15.22H346.39v-5.37h8.842v-1.848H344.317Zm17.933,0h2.573l6.719-16.659h-2.373l-5.62,14.386-5.62-14.386H355.56Zm15.411,0h2.073V-12.4h4.621a4.906,4.906,0,0,0,3.716-1.36,4.906,4.906,0,0,0,1.5-3.66,4.878,4.878,0,0,0-1.494-3.67,4.878,4.878,0,0,0-3.726-1.35h-6.7Zm9.766-11.639a3.1,3.1,0,0,1-.958,2.322,3.1,3.1,0,0,1-2.364.85h-4.371V-20.59H384.1a3.1,3.1,0,0,1,2.367.848,3.1,3.1,0,0,1,.959,2.324Zm3.647,11.639h9.816V-7.627h-7.743V-22.438h-2.073Zm23.453,0h2.3L410.1-22.438h-2.573L400.838-5.779h2.3l1.474-3.7h8.442Zm-5.7-14.811,3.6,9.266h-7.218ZM420.2-5.779h2.073V-20.59h5.3v-1.848H414.925v1.848h5.27Zm8.867,0h2.073v-7.593h8.66V-15.22h-8.667v-5.37h8.842v-1.848H429.062ZM440.876-14.1c0,4.92,3.322,8.617,8.267,8.617,4.92,0,8.267-3.7,8.267-8.617s-3.347-8.617-8.267-8.617C444.2-22.713,440.876-19.016,440.876-14.1Zm14.386,0c0,3.871-2.4,6.769-6.119,6.769-3.746,0-6.119-2.9-6.119-6.769,0-3.9,2.373-6.769,6.119-6.769C452.864-20.865,455.262-17.992,455.262-14.1Zm13.787,8.317H471.5l-4.5-6.79a4.6,4.6,0,0,0,4.321-4.845c0-3.072-2.173-5.02-5.22-5.02h-6.694V-5.779h2.073V-12.4h3.32Zm.125-11.639a3.116,3.116,0,0,1-.953,2.335,3.116,3.116,0,0,1-2.369.865h-4.371V-20.59h4.371a3.1,3.1,0,0,1,2.364.85,3.1,3.1,0,0,1,.958,2.322ZM487.582-5.779h2.073V-22.438h-2.972l-5.2,12.688-5.17-12.688h-2.972V-5.779h2.073V-19.641l5.645,13.862h.849l5.67-13.862Z" transform="translate(-2.613 22.713)"></path><path id="Path_801" data-name="Path 801" d="M2.316-22.287H7.09l6.23,9.152v-9.152h4.819V-5.742h-4.82l-6.2-9.085v9.085h-4.8ZM19.621-14a8.528,8.528,0,0,1,2.257-6.309,8.5,8.5,0,0,1,6.286-2.257,8.65,8.65,0,0,1,6.365,2.218,8.362,8.362,0,0,1,2.235,6.213,10.185,10.185,0,0,1-.976,4.757,6.959,6.959,0,0,1-2.821,2.889,9.313,9.313,0,0,1-4.6,1.033,10.582,10.582,0,0,1-4.633-.892A6.975,6.975,0,0,1,20.76-9.173,9.368,9.368,0,0,1,19.621-14Zm5.112.023a5.547,5.547,0,0,0,.931,3.6A3.152,3.152,0,0,0,28.2-9.286a3.15,3.15,0,0,0,2.551-1.072,6.122,6.122,0,0,0,.9-3.848,5.112,5.112,0,0,0-.942-3.414,3.222,3.222,0,0,0-2.557-1.08,3.106,3.106,0,0,0-2.482,1.1,5.565,5.565,0,0,0-.937,3.619ZM55.7-12.5l4.48,1.354A8.261,8.261,0,0,1,58.755-8a6.171,6.171,0,0,1-2.409,1.907,9.012,9.012,0,0,1-3.662.643,10.627,10.627,0,0,1-4.407-.784,6.987,6.987,0,0,1-2.951-2.759,9.357,9.357,0,0,1-1.241-5.056,8.6,8.6,0,0,1,2.184-6.314,8.306,8.306,0,0,1,6.179-2.206A8.39,8.39,0,0,1,57.362-21.3a7.425,7.425,0,0,1,2.658,3.882l-4.514,1a3.867,3.867,0,0,0-.5-1.106,2.941,2.941,0,0,0-1.05-.9,3.015,3.015,0,0,0-1.388-.316,3,3,0,0,0-2.663,1.4,5.95,5.95,0,0,0-.7,3.261A6.2,6.2,0,0,0,50.04-10.3a2.862,2.862,0,0,0,2.35,1.018,2.85,2.85,0,0,0,2.218-.824A5.1,5.1,0,0,0,55.7-12.5ZM60.746-14A8.528,8.528,0,0,1,63-20.312a8.5,8.5,0,0,1,6.286-2.257,8.65,8.65,0,0,1,6.365,2.218,8.362,8.362,0,0,1,2.235,6.213,10.185,10.185,0,0,1-.976,4.757,6.96,6.96,0,0,1-2.821,2.889,9.313,9.313,0,0,1-4.6,1.033,10.582,10.582,0,0,1-4.633-.892,6.975,6.975,0,0,1-2.974-2.821A9.368,9.368,0,0,1,60.746-14Zm5.112.023a5.547,5.547,0,0,0,.931,3.6,3.152,3.152,0,0,0,2.534,1.1,3.15,3.15,0,0,0,2.551-1.072,6.122,6.122,0,0,0,.9-3.848,5.112,5.112,0,0,0-.942-3.414A3.222,3.222,0,0,0,69.277-18.7a3.106,3.106,0,0,0-2.482,1.1,5.565,5.565,0,0,0-.937,3.619Zm13.58-8.306h7.6a9.1,9.1,0,0,1,3.628.609,5.9,5.9,0,0,1,2.285,1.749,7.242,7.242,0,0,1,1.309,2.652,12.306,12.306,0,0,1,.406,3.2,11.127,11.127,0,0,1-.6,4.114A6.809,6.809,0,0,1,92.39-7.505a5.468,5.468,0,0,1-2.3,1.315,11.859,11.859,0,0,1-3.047.451h-7.6Zm5.112,3.747V-9.5H85.8a5.269,5.269,0,0,0,2.28-.355A2.41,2.41,0,0,0,89.144-11.1a7.794,7.794,0,0,0,.384-2.872,5.577,5.577,0,0,0-.858-3.6,3.629,3.629,0,0,0-2.844-.971Zm11.515-3.747h13.7v3.532h-8.577v2.63h7.956v3.374h-7.956v3.261h8.825v3.747H96.066Z" transform="translate(95.877 22.676)"></path></g></g></g></svg>